# xmcd
#
# Track frame offsets: 
#        150
#        14177
#        30176
#        44124
#        58732
#        74726
#        91448
#        108391
#        126156
#        142580
#
# Disc length: 2120 seconds
#
# Revision: 0
# Processed by: cddbd v1.5.2PL0 Copyright (c) Steve Scherf et al.
# Submitted via: ExactAudioCopy v0.99pb4
#
DISCID=9008460a
DTITLE=พิมพ์  ญาดา - พิมพ์  ญาดา ขนลุก
DYEAR=2008
DGENRE=Country
TTITLE0=คิดถึงหูจี้
TTITLE1=ขนลุก
TTITLE2=เมาแล้วสิท่า
TTITLE3=ลูกสาวพ่อค้า
TTITLE4=สงสารพี่สาว
TTITLE5=ถูๆไถๆ
TTITLE6=ผู้ชายติดหู
TTITLE7=มีเมียทำไมไม่บอก
TTITLE8=คุณพ่ออยากมีผู้ช่วย
TTITLE9=ดังแต่ท่อล้อไม่หมุน
EXTD=
EXTT0=
EXTT1=
EXTT2=
EXTT3=
EXTT4=
EXTT5=
EXTT6=
EXTT7=
EXTT8=
EXTT9=
PLAYORDER=
